<?xml version="1.0" encoding="iso-8859-1"?>
<!-- Generator: Adobe Illustrator 19.0.0, SVG Export Plug-In . SVG Version: 6.00 Build 0)  -->
<svg version="1.1" id="Capa_1" xmlns="http://www.w3.org/2000/svg" xmlns:xlink="http://www.w3.org/1999/xlink" x="0px" y="0px"
	 viewBox="0 0 512 512" style="enable-background:new 0 0 512 512;" xml:space="preserve">
<path style="fill:#385F82;" d="M497.251,46.013v440.098c0,3.414-2.767,6.181-6.181,6.181H155.331V39.832H491.07
	C494.484,39.832,497.251,42.6,497.251,46.013z"/>
<path style="fill:#2B5266;" d="M189.708,187.036c-2.019,31.647-3.544,61.348-3.544,79.026c0,52.416,13.362,210.448,13.495,212.034
	l0.041,0.525v0.525c0,4.574-0.68,8.983-1.957,13.145H155.33V39.832h335.74c3.414,0,6.181,2.767,6.181,6.181v141.023H189.708z"/>
<path style="fill:#E3E3E3;" d="M497.251,46.013v128.661h-341.92V39.832H491.07C494.484,39.832,497.251,42.6,497.251,46.013z"/>
<path style="fill:#C8C8C8;" d="M449.564,39.832v63.11c0,6.82-5.532,12.362-12.362,12.362H235.356
	c-6.83,0-12.362-5.542-12.362-12.362v-63.11H449.564z"/>
<path style="fill:#4E7693;" d="M154.483,512H47.605c-18.146,0-32.856-14.71-32.856-32.856c0,0,13.537-159.537,13.537-213.082
	S14.749,52.98,14.749,52.98c0-18.146,14.71-32.856,32.856-32.856h106.877c18.146,0,32.856,14.71,32.856,32.856
	c0,0-13.537,159.537-13.537,213.082s13.537,213.082,13.537,213.082C187.339,497.29,172.629,512,154.483,512z"/>
<path style="fill:#618BAA;" d="M187.339,52.978c0,0-0.35,4.162-0.948,11.373c-3.523-14.361-16.473-25.003-31.905-25.003H47.604
	c-15.443,0-28.392,10.652-31.905,25.023c-0.597-7.222-0.948-11.394-0.948-11.394c0-18.142,14.711-32.853,32.853-32.853h106.882
	C172.628,20.125,187.339,34.836,187.339,52.978z"/>
<path style="fill:#385F82;" d="M187.339,479.147c0,18.142-14.711,32.853-32.853,32.853H47.604
	c-18.142,0-32.853-14.711-32.853-32.853c0,0,1.494-17.627,3.492-43.144c5.398,10.745,16.524,18.111,29.36,18.111h106.882
	c12.836,0,23.952-7.366,29.36-18.101C185.845,461.521,187.339,479.147,187.339,479.147z"/>
<path style="fill:#2B5266;" d="M408.704,268.056c-15.98,0-28.981-13.001-28.981-28.981s13.001-28.981,28.981-28.981h26.927
	c15.98,0,28.981,13.001,28.981,28.981s-13.001,28.981-28.981,28.981H408.704z"/>
<path style="fill:#89B4C9;" d="M435.632,255.694h-26.927c-9.178,0-16.618-7.44-16.618-16.618l0,0c0-9.178,7.44-16.618,16.618-16.618
	h26.927c9.178,0,16.618,7.44,16.618,16.618l0,0C452.25,248.254,444.81,255.694,435.632,255.694z"/>
<path style="fill:#2B5266;" d="M322.816,268.056c-15.98,0-28.981-13.001-28.981-28.981s13.001-28.981,28.981-28.981h26.927
	c15.98,0,28.981,13.001,28.981,28.981s-13.001,28.981-28.981,28.981H322.816z"/>
<path style="fill:#89B4C9;" d="M349.743,255.694h-26.927c-9.178,0-16.618-7.44-16.618-16.618l0,0c0-9.178,7.44-16.618,16.618-16.618
	h26.927c9.178,0,16.618,7.44,16.618,16.618l0,0C366.362,248.254,358.922,255.694,349.743,255.694z"/>
<path style="fill:#2B5266;" d="M236.928,268.056c-15.98,0-28.981-13.001-28.981-28.981s13.001-28.981,28.981-28.981h26.927
	c15.98,0,28.981,13.001,28.981,28.981s-13.001,28.981-28.981,28.981H236.928z"/>
<path style="fill:#89B4C9;" d="M263.855,255.694h-26.927c-9.178,0-16.618-7.44-16.618-16.618l0,0c0-9.178,7.44-16.618,16.618-16.618
	h26.927c9.178,0,16.618,7.44,16.618,16.618l0,0C280.474,248.254,273.033,255.694,263.855,255.694z"/>
<path style="fill:#2B5266;" d="M408.704,330.889c-15.98,0-28.981-13.001-28.981-28.981s13.001-28.981,28.981-28.981h26.927
	c15.98,0,28.981,13.001,28.981,28.981s-13.001,28.981-28.981,28.981H408.704z"/>
<path style="fill:#89B4C9;" d="M435.632,318.526h-26.927c-9.178,0-16.618-7.44-16.618-16.618l0,0c0-9.178,7.44-16.618,16.618-16.618
	h26.927c9.178,0,16.618,7.44,16.618,16.618l0,0C452.25,311.086,444.81,318.526,435.632,318.526z"/>
<path style="fill:#2B5266;" d="M322.816,330.889c-15.98,0-28.981-13.001-28.981-28.981s13.001-28.981,28.981-28.981h26.927
	c15.98,0,28.981,13.001,28.981,28.981s-13.001,28.981-28.981,28.981H322.816z"/>
<path style="fill:#89B4C9;" d="M349.743,318.526h-26.927c-9.178,0-16.618-7.44-16.618-16.618l0,0c0-9.178,7.44-16.618,16.618-16.618
	h26.927c9.178,0,16.618,7.44,16.618,16.618l0,0C366.362,311.086,358.922,318.526,349.743,318.526z"/>
<path style="fill:#2B5266;" d="M236.928,330.889c-15.98,0-28.981-13.001-28.981-28.981s13.001-28.981,28.981-28.981h26.927
	c15.98,0,28.981,13.001,28.981,28.981s-13.001,28.981-28.981,28.981H236.928z"/>
<path style="fill:#89B4C9;" d="M263.855,318.526h-26.927c-9.178,0-16.618-7.44-16.618-16.618l0,0c0-9.178,7.44-16.618,16.618-16.618
	h26.927c9.178,0,16.618,7.44,16.618,16.618l0,0C280.474,311.086,273.033,318.526,263.855,318.526z"/>
<path style="fill:#2B5266;" d="M408.704,393.721c-15.98,0-28.981-13.001-28.981-28.981s13.001-28.981,28.981-28.981h26.927
	c15.98,0,28.981,13.001,28.981,28.981s-13.001,28.981-28.981,28.981H408.704z"/>
<path style="fill:#89B4C9;" d="M435.632,381.358h-26.927c-9.178,0-16.618-7.44-16.618-16.618l0,0c0-9.178,7.44-16.618,16.618-16.618
	h26.927c9.178,0,16.618,7.44,16.618,16.618l0,0C452.25,373.918,444.81,381.358,435.632,381.358z"/>
<path style="fill:#2B5266;" d="M322.816,393.721c-15.98,0-28.981-13.001-28.981-28.981s13.001-28.981,28.981-28.981h26.927
	c15.98,0,28.981,13.001,28.981,28.981s-13.001,28.981-28.981,28.981H322.816z"/>
<path style="fill:#89B4C9;" d="M349.743,381.358h-26.927c-9.178,0-16.618-7.44-16.618-16.618l0,0c0-9.178,7.44-16.618,16.618-16.618
	h26.927c9.178,0,16.618,7.44,16.618,16.618l0,0C366.362,373.918,358.922,381.358,349.743,381.358z"/>
<path style="fill:#2B5266;" d="M236.928,393.721c-15.98,0-28.981-13.001-28.981-28.981s13.001-28.981,28.981-28.981h26.927
	c15.98,0,28.981,13.001,28.981,28.981s-13.001,28.981-28.981,28.981H236.928z"/>
<path style="fill:#89B4C9;" d="M263.855,381.358h-26.927c-9.178,0-16.618-7.44-16.618-16.618l0,0c0-9.178,7.44-16.618,16.618-16.618
	h26.927c9.178,0,16.618,7.44,16.618,16.618l0,0C280.474,373.918,273.033,381.358,263.855,381.358z"/>
<path style="fill:#2B5266;" d="M408.704,456.552c-15.98,0-28.981-13.001-28.981-28.981s13.001-28.981,28.981-28.981h26.927
	c15.98,0,28.981,13.001,28.981,28.981s-13.001,28.981-28.981,28.981H408.704z"/>
<path style="fill:#FC4747;" d="M435.632,444.19h-26.927c-9.178,0-16.618-7.44-16.618-16.618l0,0c0-9.178,7.44-16.618,16.618-16.618
	h26.927c9.178,0,16.618,7.44,16.618,16.618l0,0C452.25,436.75,444.81,444.19,435.632,444.19z"/>
<path style="fill:#2B5266;" d="M322.816,456.552c-15.98,0-28.981-13.001-28.981-28.981s13.001-28.981,28.981-28.981h26.927
	c15.98,0,28.981,13.001,28.981,28.981s-13.001,28.981-28.981,28.981H322.816z"/>
<path style="fill:#89B4C9;" d="M349.743,444.19h-26.927c-9.178,0-16.618-7.44-16.618-16.618l0,0c0-9.178,7.44-16.618,16.618-16.618
	h26.927c9.178,0,16.618,7.44,16.618,16.618l0,0C366.362,436.75,358.922,444.19,349.743,444.19z"/>
<path style="fill:#2B5266;" d="M236.928,456.552c-15.98,0-28.981-13.001-28.981-28.981s13.001-28.981,28.981-28.981h26.927
	c15.98,0,28.981,13.001,28.981,28.981s-13.001,28.981-28.981,28.981H236.928z"/>
<path style="fill:#89B4C9;" d="M263.855,444.19h-26.927c-9.178,0-16.618-7.44-16.618-16.618l0,0c0-9.178,7.44-16.618,16.618-16.618
	h26.927c9.178,0,16.618,7.44,16.618,16.618l0,0C280.474,436.75,273.033,444.19,263.855,444.19z"/>
<path style="fill:#00D8E0;" d="M437.206,6.181v90.577c0,3.414-2.767,6.181-6.181,6.181h-189.49c-3.414,0-6.181-2.767-6.181-6.181
	V6.181c0-3.414,2.767-6.181,6.181-6.181h189.49C434.439,0,437.206,2.767,437.206,6.181z"/>
<g>
	<polygon style="fill:#98F4F4;" points="423.402,0 320.463,102.939 244.061,102.939 347,0 	"/>
	<polygon style="fill:#98F4F4;" points="437.206,15.448 437.206,45.701 379.968,102.939 349.715,102.939 	"/>
</g>
<g>
	<path style="fill:#FC4747;" d="M258.302,143.805h-22.951c-4.268,0-7.726-3.459-7.726-7.726c0-4.268,3.459-7.726,7.726-7.726h22.951
		c4.268,0,7.726,3.459,7.726,7.726S262.569,143.805,258.302,143.805z"/>
	<path style="fill:#FC4747;" d="M317.673,143.805h-22.951c-4.268,0-7.726-3.459-7.726-7.726c0-4.268,3.459-7.726,7.726-7.726h22.951
		c4.268,0,7.726,3.459,7.726,7.726C325.399,140.346,321.94,143.805,317.673,143.805z"/>
	<path style="fill:#FC4747;" d="M377.044,143.805h-22.951c-4.268,0-7.726-3.459-7.726-7.726c0-4.268,3.459-7.726,7.726-7.726h22.951
		c4.268,0,7.726,3.459,7.726,7.726C384.771,140.346,381.312,143.805,377.044,143.805z"/>
	<path style="fill:#FC4747;" d="M436.416,143.805h-22.951c-4.268,0-7.726-3.459-7.726-7.726c0-4.268,3.459-7.726,7.726-7.726h22.951
		c4.268,0,7.726,3.459,7.726,7.726C444.143,140.346,440.684,143.805,436.416,143.805z"/>
</g>
<g>
</g>
<g>
</g>
<g>
</g>
<g>
</g>
<g>
</g>
<g>
</g>
<g>
</g>
<g>
</g>
<g>
</g>
<g>
</g>
<g>
</g>
<g>
</g>
<g>
</g>
<g>
</g>
<g>
</g>
</svg>
