<svg id="_x33_0" enable-background="new 0 0 64 64" height="512" viewBox="0 0 64 64" width="512" xmlns="http://www.w3.org/2000/svg" xmlns:xlink="http://www.w3.org/1999/xlink"><linearGradient id="SVGID_1_" gradientUnits="userSpaceOnUse" x1="32" x2="32" y1="63" y2="1"><stop offset="0" stop-color="#9f2fff"/><stop offset="1" stop-color="#0bb1d3"/></linearGradient><path d="m25 49h-8c-1.103 0-2 .897-2 2v2c0 1.103.897 2 2 2h8c1.103 0 2-.897 2-2v-2c0-1.103-.897-2-2-2zm0 4h-8v-2h8zm-8-14.132 11.803-7.868-11.803-7.869zm2-11.999 6.197 4.131-6.197 4.132zm-8 24.131h2v2h-2zm18 0h2v2h-2zm16-8c7.168 0 13-5.832 13-13h2c0 8.271-6.729 15-15 15zm0-4c4.962 0 9-4.037 9-9h2c0 6.065-4.935 11-11 11zm7-9c0 3.859-3.14 7-7 7v-2c2.757 0 5-2.243 5-5zm4.775-21.996c-.913-4.056-4.522-7.004-8.775-7.004-3.181 0-6.117 1.691-7.725 4.38-.73-.253-1.491-.38-2.275-.38-1.894 0-3.617.759-4.884 2h-27.116c-2.757 0-5 2.243-5 5v46c0 2.757 2.243 5 5 5h30c2.757 0 5-2.243 5-5v-24h1c3.86 0 7-3.14 7-7v-11h3.943l-6.943-9.721-6.943 9.721h3.943v11c0 .551-.449 1-1 1h-1v-8-1-1h-9c-1.654 0-3-1.346-3-3s1.346-3 2.901-3.006l1.032.028.142-.849c.404-2.418 2.475-4.173 4.925-4.173.796 0 1.562.185 2.274.55l.93.476.435-.95c1.135-2.476 3.632-4.076 6.361-4.076 3.574 0 6.564 2.676 6.955 6.225l.122 1.101 1.082-.232c.291-.064.567-.094.841-.094 2.206 0 4 1.794 4 4s-1.794 4-4 4h-6v2h6c3.309 0 6-2.691 6-6 0-3.383-2.813-6.134-6.225-5.996zm-34.775 4.996h-2c-1.103 0-2-.897-2-2v-2h2v2h2v-2h2v2c0 1.103-.897 2-2 2zm17 45c0 1.654-1.346 3-3 3h-30c-1.654 0-3-1.346-3-3v-46c0-1.654 1.346-3 3-3h10v2c0 .732.212 1.409.556 2h-9.556c-1.103 0-2 .897-2 2v42c0 1.103.897 2 2 2h28c1.103 0 2-.897 2-2v-23h2zm-32-11h28v10h-28zm38-20v-13h-2.057l3.057-4.279 3.057 4.279h-2.057v13c0 2.757-2.243 5-5 5h-11.014l-.15.819c-.872 4.741-5.008 8.181-9.836 8.181-5.514 0-10-4.486-10-10s4.486-10 10-10c4.828 0 8.964 3.44 9.835 8.181l.151.819h11.014c1.654 0 3-1.346 3-3zm-6 1h-2v-8h2zm-7-8h3v8h-2.378c-1.35-5.263-6.111-9-11.622-9-6.617 0-12 5.383-12 12s5.383 12 12 12c5.511 0 10.272-3.737 11.622-9h2.378v11h-28v-30h20c0 2.757 2.243 5 5 5zm-4.565-7h-1.991c.344-.591.556-1.268.556-2v-2h5.679c-.158.336-.292.686-.397 1.051-1.732.251-3.165 1.399-3.847 2.949z" fill="url(#SVGID_1_)"/></svg>